<svg xmlns="http://www.w3.org/2000/svg" viewBox="0 0 1997.41 532.93"><defs><style>.cls-1{fill:#e6332a;}.cls-2{fill:#fff;}.cls-3,.cls-4,.cls-5,.cls-6,.cls-7{fill:#262626;stroke-width:3px;}.cls-3{stroke:#9b9b9b;}.cls-3,.cls-4,.cls-5,.cls-6,.cls-7,.cls-8{stroke-miterlimit:10;}.cls-4{stroke:#7c7c7c;}.cls-5,.cls-8{stroke:#6b6b6b;}.cls-6{stroke:#7a7a7a;}.cls-7{stroke:#727272;}.cls-8{fill:#f35e36;stroke-width:4px;}.cls-9{fill:#1d1d1b;}</style></defs><g id="Camada_2" data-name="Camada 2"><g id="Camada_1-2" data-name="Camada 1"><path class="cls-1" d="M232.41,136.59c39.61,30,72.54,65.94,96.66,105.56l-.52-35.07c16.63,33.67,62.17,50.57,104.87,59.72s88.76,14.6,123.07,37.46l-11-43.9q116,25.88,234.52,43.3L769.76,263c25.51,32.54,81,36.76,127.71,32.7s97.09-12.43,138.44,6c-14.57-13.47-24.94-30-29.84-47.59,46.47,42.14,137.19,42.87,184.64,1.48l1.1,36.35q76.17-25.59,151.07-53.65L1308.2,307c69.82-40.08,153.09-64.08,238-68.58a266.92,266.92,0,0,1-28.37,60.22c72.19-49.1,194.91-28.08,255.26-87,23.45,36.54-6.79,83.3-49.74,104.67s-94.84,25.25-143.88,34c-65.27,11.59-128.61,32.58-195.29,35.33-38.24,1.58-76.4-2.91-114.48-6.2-60.65-5.24-121.63-7.47-182.56-9.69l-225.42-8.23c-125.23-4.56-250.76-9.13-375.83-2.2-57.65,3.19-116.69,8.72-172.35-4.06-44.76-10.28-110.89-43.68-105-88.37,2.15-16.5,15.64-32.23,20-48.57C231.84,205.71,244.28,145.58,232.41,136.59Z"/><path class="cls-1" d="M373.87,516.68c-104.18.5-218.08-8.4-291.17-56.32C-2,404.79-3,317.33,1.41,239.41c3.66,52.31,112.34,75.35,138.73,124.86A840.34,840.34,0,0,1,131.33,157c32.5,33.69,75.64,63.09,126,85.85-11.7-20-19.11-41.06-22-62.37,60,59.17,176.12,92.3,284.29,81.1L542.4,212.5c45.37,42.34,136,50.31,215.73,51.84S926.39,267,984,302.56c3.24-22.63-3.62-45.82-19.55-66.09,21.17,28.1,73.1,39.8,120.67,45.58s99.06,9.21,136,29.44c17.47-23.5,62.27-31.46,101.78-36.85L1488.64,252c-1.4,13.78-9.43,27.25-22.7,38.09q120.33-3.81,240.25-11.42c82.75-5.25,172.74-14.21,228.91-53.77-26.54,40.22-72.36,75-129.55,98.46a950.38,950.38,0,0,0,191.86-29.84c-59.86,61.08-125.12,125.3-226.7,155.71-64.77,19.39-139.38,23.24-201.65,45.78l129.5-7.24c-75.38,34.52-173.83,38.72-266.2,36.79s-187-8.59-275.59,8.37c-7.31-12.09-2.44-26.85,11.88-36-42.94,27.34-86.64,21.28-136.09,12.19-67-12.32-142.15-10.78-211.42-9.75C671.74,501.63,523.38,516,373.87,516.68Z"/><path class="cls-2" d="M197,.56,324.37.28a82.63,82.63,0,0,0,0,9.75V52.12q-18.67.29-30.1.28V376.3H279.21l-27,.28-24.53-.28v-6.13L224.58,92.82V52.4L197.27,53V35.12L197,7Z"/><path class="cls-2" d="M911.15,1.11l5,.84c1.67.38,2.51,2.51,2.51,6.41,0,1.49-.09,3.26-.28,5.3q.55.84.56,5.57v3.63q-.29,1.39,0,343.68l.84,2-.84,3.62q-2.24,3.9-5.85,3.9a6.1,6.1,0,0,1-2-.28c-.74.38-2.88.56-6.41.56q-3.9,0-9.47-.28l-3.91-.56c-.37.38-3.25.56-8.64.56q-6.13,0-16.44-.28l-3.9-.83a1,1,0,0,1-1.12,1.11q-3.35-.84-4.18-10.87.55-2.5-.42-67.32t-.7-67l-2.78-.56-.28,2.23c-.38,1.49-.75,2.23-1.12,2.23v3.62L833.11,353.16a8,8,0,0,1-1.12,2,49.69,49.69,0,0,1-.28,5.57L829.48,371c-.55,3.17-2.6,4.74-6.13,4.74a12.66,12.66,0,0,1-2.51-.28,74.76,74.76,0,0,1-8.92.56,57.06,57.06,0,0,1-11.7-1.11c-.19.74-1.86.93-5,.55v-.55l-1.12.55-5-1.11q-2.52-.56-4.74-21.74l-19-120.7c-.74-1.85-1-3-.83-3.34l-.56-.28-1.67,2.51a8,8,0,0,1,.28,1.67H762l.28,1.11a6,6,0,0,0-.84,2.23q1.11,0-.56,128.78c.37,0,.47.19.28.56l-1.39,7.53c-.38,2.23-4.46,3.16-12.27,2.78H731.09c.18-.18.09-.37-.28-.55q-.28,1.11-10.87.28c0,.37-.19.46-.56.27l-5.3-.83a8.07,8.07,0,0,1-4.18-7V22.3A131.85,131.85,0,0,1,711,5.3Q711.86,0,725,0a74.91,74.91,0,0,1,8.64.56q17-.56,25.08.83C758.87,1,761,.56,765.09,0l20.07,1.39q2.52.57,4.46,11.71A66.9,66.9,0,0,0,793,27l15.33,90.31q3.9,15,3.62,15.33a4.26,4.26,0,0,0,2.23,1.12,12,12,0,0,1,2.23-4.19l-.55-1.67c.74.19,1.11-.09,1.11-.83l.56-2.23a.5.5,0,0,0-.56-.56l.84-1.12-.84-1.67a1.31,1.31,0,0,0,1.39-1.11c-.74,0-1-.37-.83-1.12q1.11.28,1.11-.84l.28-1.67-.56-2v-1.11l1.4-1.4.28-.56a.49.49,0,0,0-.56-.55l.84-.84-.84-1.95L838.4,9.48c.74-.37,1.77-2.42,3.07-6.14,1.85-1.67,4.55-2.5,8.08-2.5a31.54,31.54,0,0,1,5.58.55q.27-.55,7.52-.55a.5.5,0,0,1,.56-.56h.56q3.06.84,24,.83l1.67.28q2-1.38,9.48,0l.56.28q1.11-.84,11.15-.28A.81.81,0,0,1,911.15,1.11Z"/><circle class="cls-3" cx="500.91" cy="188.29" r="186.76"/><circle class="cls-4" cx="500.91" cy="188.29" r="163.98"/><ellipse class="cls-5" cx="500.91" cy="191.96" rx="141.21" ry="144.88"/><circle class="cls-6" cx="500.91" cy="188.29" r="118.44"/><circle class="cls-7" cx="500.91" cy="188.29" r="95.67"/><circle class="cls-8" cx="500.91" cy="188.29" r="72.89"/><circle class="cls-9" cx="500.91" cy="188.29" r="11.1"/><circle class="cls-2" cx="500.91" cy="188.29" r="5.24"/><path class="cls-2" d="M1005.72,372.07V202.76l1-14.17q1-8,3.42-10.17a50.92,50.92,0,0,1,5.85-15q40-93.34,38.58-95.49l-.49-.8q-1.71-1.86-12.94-1.6-.24-.54-5.37,0a123.94,123.94,0,0,1-14.89-.54,9.49,9.49,0,0,1-5.86-.27q-1,.81-6.84-2.14l-.73-.8V18l2.44-1.34a23.72,23.72,0,0,1,9.77-1.87h88.13a16.75,16.75,0,0,1,8.06,2.41l1.71,1.87V49a44.49,44.49,0,0,1-1.47,10.7l-5.86,13.11-41.5,99.76v2.68l.73.8c.81,1.25,3.91,1.87,9.28,1.87h28.81q10,0,10.25,3.74l-.24,194.18h-98.39A28.74,28.74,0,0,1,1005.72,372.07Z"/><path class="cls-2" d="M1185.41,16.34l1.71,1.34v341q.74,8.83-.25,13.64c.16.18-.16,1.17-1,2.95l-45.17-.27a18.49,18.49,0,0,1-8.79,0,1.57,1.57,0,0,1-1.22.53,8.51,8.51,0,0,1-3.42-1.07c-.33.18-.57.18-.73,0q-2-2.67-2.93-13.64V33.46q1-15.24,2.69-16.85.48.81,3.9-1.34.74.54,12.7-.8,2.43.81,30.27,0,.49.81,9.28.54Z"/><path class="cls-2" d="M1323.84,48.17l.73,1.87-.25,1.88,1,2.4,1.47,1.07c-.49.18-.58,1.34-.25,3.48.16.36.41.45.73.27a162.19,162.19,0,0,1,3.91,23.27q1,10.7,1,16.85c0,5.7-.66,8.82-2,9.36l-2.19,1.07q-19,0-19.78.26a68.84,68.84,0,0,0-10,.27c-.16-.89-1.22-1-3.17-.27-.33-.71-1.39-.8-3.18-.26l-3.41-2.41-1.23-2.67q.24-6.15-1.7-20.06.72,0,0-6.69l-1.22-3.48-2-5.88q-6.58-3.75-11.72-2.94l-2.44,1.07a.54.54,0,0,0-.24.8h-1.22q-7.57,7.21-8.79,12-1.23.81-5.62,17.12-1.46,8-2.44,34.77-1.23,2.15-.49,9.63c-.81.53-.65,3.48.49,8.83q-.24.8,1,16.85,2.92,7.76,2.44,10.16l3.17,8.29q10.26,12.84,18.56,8.83l2-.8,5.86-3.48q2.45-9.63,1.71-15.25l-1.71-4.81a16.34,16.34,0,0,0-9.77-5.62c-1,.36-2.93-.27-5.85-1.87l-1.23-2.94q-1.71-19.53.25-31.56l1.46-2.41,1.47-.54q10.49-.52,43.7-.26l6.84.26c8.94-.17,13.83.72,14.64,2.68a283.69,283.69,0,0,1,1.71,32.1l-.24,205.94a5.83,5.83,0,0,1,.49,2.41,14,14,0,0,1-2.44,6.95l-2.2,1.07q-18.81.27-25.39-.53a46.39,46.39,0,0,1-7.81-10.44,2.62,2.62,0,0,0-2,.27l-1.22.54a108.26,108.26,0,0,0-9.52,8l-8.3,4c-.49.18-1.14-.09-2-.8l-1.47,1.34a56.91,56.91,0,0,1-16.36,2.94,26.11,26.11,0,0,1-5.61-.54q-9.29-.53-22.46-9.36-12-10.15-15.14-18.45l-1-1.87-1.22-1.07-1.71-4a2.35,2.35,0,0,0-1.22-1.61,3.34,3.34,0,0,0-.24-2.14l-.73-.8v-1.07c-.33-.71-.57-1-.74-.8l-1.46-5.09-2.69-6.15a4.43,4.43,0,0,0,.25-2.4q-3.18-8-2.44-10.17l-.74-1.6q-1.21-2.94-4.15-22.47-1-2.67-1.46-13.1c-.16-.36-.41-.45-.73-.27q-.5-1.33-.74-13.91-2.19-27.81-2.19-40.65,0-3.48.24-5.89.49-2.94-.24-13.1,1-1.6.73-12.31,1-8.82,1.71-27.28c.81-.35,1.14-4.37,1-12l6.83-38.52a50.7,50.7,0,0,0,2.44-11q1-.54,3.91-13.38l5.37-13.37q.24-3.21,13.43-30.49.74-.27,6.1-9.09,11-13.38,17.09-16.32c0-.35.08-.53.25-.53l2.19-1.07,1.71.26.49-.26,1-1.61q.48,1.08,1.71.54a36,36,0,0,1,16.11-3.48A63.43,63.43,0,0,1,1292.1,18q10.49,2.94,15.38,7.49Q1315,32.13,1317.73,38c.49-.36,1.55,1.43,3.18,5.35l1.46,3.74Z"/><path class="cls-2" d="M1354.11,15.54l2.44.54,38.58-.54q6.82,2.14,6.83,5.62,2.93,14.72,4.15,16.85c-.65.18-1,.53-1,1.07q2.19,2.67,4.39,19,1.21,0,5.61,21.93,1.47,4,4.16,19.52a176.3,176.3,0,0,1,4.39,20.06c.32,0,.49.18.49.54l-1,1.34v1.07q2,0,4.64,9.09h1q-.25-4.27,1.22-6.42V72l-.49-29.16,1-1.6v-.54l-1-1.33V31.86l1-1.61V28.11c0-.35-.17-.53-.49-.53l.49-1.07-.25-5.08c0-3,1.47-4.82,4.4-5.35l7.08-.27,1.46-1.07q24.66.8,24.66.27c2.93.36,4.39.71,4.39,1.07l1-.54q3.66-.25,3.91,8.83l-.49,3.21c0,.36.16.53.49.53l-.49,3.75.49,289.39-1,1.6v5.35c0,.36.16.54.49.54l-.49,1.07V336c0,.36.16.53.49.53l-.49,1.07c0,.36.16.54.49.54l-.49,1.07.24,19.52q.24,11-1.22,11.24l.49.8q-1.21,4.27-6.59,4.55-26.86-.27-41.5,0c0-.71-.33-1.07-1-1.07h-1.47l-1.46,1.07q-4.39-2.41-4.39-5.35-2.44-10.69-2.45-14.18v-1.6q-1-2.14-4.63-17.92h.48a37.77,37.77,0,0,1-2-10.43v-1.61q-2.68-4-6.1-26.75v-1.6c-.66-1.25-1.71-4.9-3.18-11v-3.21a139.05,139.05,0,0,1-4.64-20.05q-.72,0-2.93-13.65-1,0-2-4.54l-1-.54a4.51,4.51,0,0,1-1,2.68q0,1.33-.25,14.17c-.65,0-1,.36-1,1.07v2.68l1,1.33v3.75l-1,1.6v1.07l1,1.61c-.65.18-1,.53-1,1.07l.49,34.77,1,1.6q-1.46,0-1.22,12v11.23a5.61,5.61,0,0,1-1,1.61v.53l1,1.61-.49,31.56q0,5.88-7.08,5.88h-3.9l-1.47,1.07-.49-1.07q-.48,0-.48.54l-2.45-.54L1350,375l-.49.27v-.54H1349v.54h-8.54v-5.35l-.25-342.62q.49-9.63,4.89-11.23h7.81C1353.7,16.08,1354.11,15.9,1354.11,15.54Z"/><path class="cls-2" d="M1630.72,374.47q-14.4.54-28.56,0h-16.85l-9,.54c-1.31-1.07-2.44-1.51-3.42-1.34l-.73-.53q-2.45-11.24-2.93-29.16,0-6.15-2.44-36.1-.49-17.65-2-23.81.5-8.82-3.41-11.5-.73-.52-12.21-1.07l-9.77.54c-1.3-.54-2.6.36-3.9,2.67q-.73,1.08-2.69,16.05a5.74,5.74,0,0,1-.24,4.28q.48,1.88-2.69,23.8.49.81-2.93,31.83l-1.46,14.17c.48.36.32,1.52-.49,3.48a1.24,1.24,0,0,1,.24,1.61l-2.68,4.28a47.89,47.89,0,0,1-12.7,1.33c-2.44,0-5-.08-7.81-.26a57,57,0,0,0-8.06.53l-11.47-1.07-1-.53a34.07,34.07,0,0,1-.24-4.28,58.69,58.69,0,0,1,1-9.9q2-20.86,2.93-22.47-.48-.53,1-16.58a101,101,0,0,0,1.71-15.51q1-1.61,1.46-9.63l1.22-6.69q-.48-.79,18.07-163.95c.81-4.45,1-6.86.49-7.22q1-1.33,3.66-24.34L1516,65.29q.49-.81,2.69-23.81a166.64,166.64,0,0,0,2.44-20.59,4.71,4.71,0,0,0,.73-3.21l.74-.8q3.17-1.87,16.6-1.61l41-.53a54.47,54.47,0,0,1,13.68,1.34l1.22,1.07a12.78,12.78,0,0,1,2,7.22q-.49.54,2,13.64l2.69,31q1.71,5.89.73,7,1,10.17,1.47,10.7,1.7,19,1,20.06l3.66,31.56q17.34,175.71,19,186.68c-.49.9-.17,3.21,1,7-.48,2.5-.16,6.68,1,12.57q-.49.54,1.22,17.65a41.19,41.19,0,0,1,1,7.76A7.93,7.93,0,0,1,1630.72,374.47Zm-73.24-199q-.74-.53-1.22-17.38a44.82,44.82,0,0,1-.73-12.84q-1.23-.81-2-16.85c-.81-.54-.89-1.25-.24-2.14l-1.22-1.07-.25.53L1548,146.6q-.26,9.09-2,12.57c.33,5.88.08,10-.73,12.3q.74.54-.49,5.62l4.4,3.21c.32-.54,2.28-.81,5.86-.81Z"/><path class="cls-2" d="M1685.41,15.81l1,.53q1.21,20.34.48,40.39.5.27,0,5.35l-.24,113.67c1,1.78,1.3,3,1,3.74l3.17,1.61q21.72-.27,24.9,1.34l1.71.8c1.14.53,1.71,4.91,1.71,13.1,0,3.39-.08,7.32-.24,11.77q0,134-.74,135.87a17.29,17.29,0,0,1,.74,5.89c0,1.6-.09,3.39-.25,5.35.33.18.16,2.4-.49,6.68q.5.27,0,8a1.16,1.16,0,0,1,.25.8l-.25.27q-2.92,4-3.66,3.74-1.95,1.08-15.87,1.07-10,0-25.88-.53a193.36,193.36,0,0,1-20.5,0c0,.18-.66.26-2,.26s-3.17-.08-5.61-.26c-3.42.18-6.27.26-8.55.26-2.77,0-4.56-.17-5.37-.53l-2.68-1.34q-1.47-1.34-2.2-12.84V31.59q.48-2.94,1.46-13.11l.25-.8q2.92-2.94,9.27-2.94a30.81,30.81,0,0,1,5.38.53,130.91,130.91,0,0,1,14.89-.53h8.3Q1683.71,15,1685.41,15.81Z"/></g></g></svg>