<svg xmlns="http://www.w3.org/2000/svg" viewBox="0 0 1997.41 533.43"><defs><style>.cls-1{fill:#e6332a;}.cls-2,.cls-6{fill:#fff;}.cls-2,.cls-3,.cls-4{stroke:#1d1d1b;stroke-miterlimit:10;}.cls-3{fill:#262626;stroke-width:3px;}.cls-4{fill:#f35e36;stroke-width:4px;}.cls-5{fill:#1d1d1b;}</style></defs><g id="Camada_2" data-name="Camada 2"><g id="Camada_1-2" data-name="Camada 1"><path class="cls-1" d="M232.41,137.09C272,167.08,305,203,329.07,242.65l-.52-35.07c16.63,33.68,62.17,50.58,104.87,59.72s88.76,14.61,123.07,37.47l-11-43.91q116,25.88,234.52,43.31l-10.2-40.66c25.51,32.53,81,36.75,127.71,32.69s97.09-12.43,138.44,6c-14.57-13.47-24.94-30-29.84-47.6,46.47,42.14,137.19,42.87,184.64,1.48l1.1,36.35q76.17-25.59,151.07-53.64l-34.68,68.69c69.82-40.08,153.09-64.08,238-68.58a266.71,266.71,0,0,1-28.37,60.22c72.19-49.1,194.91-28.08,255.26-87,23.45,36.54-6.79,83.31-49.74,104.67s-94.84,25.25-143.88,34c-65.27,11.6-128.61,32.58-195.29,35.33-38.24,1.58-76.4-2.91-114.48-6.2-60.65-5.24-121.63-7.47-182.56-9.69l-225.42-8.22c-125.23-4.57-250.76-9.14-375.83-2.21-57.65,3.2-116.69,8.72-172.35-4.06-44.76-10.28-110.89-43.68-105-88.37,2.15-16.49,15.64-32.22,20-48.56C231.84,206.22,244.28,146.08,232.41,137.09Z"/><path class="cls-1" d="M373.87,517.18c-104.18.5-218.08-8.4-291.17-56.32C-2,405.3-3,317.83,1.41,239.92c3.66,52.3,112.34,75.34,138.73,124.85a840.34,840.34,0,0,1-8.81-207.27c32.5,33.69,75.64,63.09,126,85.86-11.7-20-19.11-41.07-22-62.38,60,59.17,176.12,92.3,284.29,81.1L542.4,213c45.37,42.33,136,50.3,215.73,51.83S926.39,267.45,984,303.07c3.24-22.63-3.62-45.83-19.55-66.09,21.17,28.09,73.1,39.79,120.67,45.57s99.06,9.21,136,29.44c17.47-23.5,62.27-31.45,101.78-36.85l165.82-22.64c-1.4,13.79-9.43,27.26-22.7,38.09q120.33-3.81,240.25-11.42c82.75-5.25,172.74-14.21,228.91-53.77-26.54,40.22-72.36,75-129.55,98.46A951.08,951.08,0,0,0,1997.41,294c-59.86,61.07-125.12,125.29-226.7,155.7-64.77,19.4-139.38,23.24-201.65,45.78l129.5-7.24c-75.38,34.52-173.83,38.72-266.2,36.79s-187-8.59-275.59,8.37c-7.31-12.09-2.44-26.85,11.88-36-42.94,27.34-86.64,21.28-136.09,12.19-67-12.32-142.15-10.78-211.42-9.75C671.74,502.13,523.38,516.45,373.87,517.18Z"/><path class="cls-2" d="M197,1.06,324.37.78a82.8,82.8,0,0,0,0,9.76V52.63q-18.67.27-30.1.28V376.8H279.21l-27,.28-24.53-.28v-6.13L224.58,93.32V52.91l-27.31.55V35.62L197,7.47Z"/><path class="cls-2" d="M911.15,1.62l5,.83c1.67.38,2.51,2.51,2.51,6.41,0,1.49-.09,3.26-.28,5.3q.55.84.56,5.58v3.62q-.29,1.39,0,343.69l.84,1.95-.84,3.62c-1.49,2.61-3.44,3.9-5.85,3.9a6.4,6.4,0,0,1-2-.27q-1.11.56-6.41.55-3.9,0-9.47-.28l-3.91-.55q-.55.55-8.64.55-6.13,0-16.44-.27l-3.9-.84a1,1,0,0,1-1.12,1.11q-3.35-.82-4.18-10.87.55-2.5-.42-67.31t-.7-67l-2.78-.56L852.9,233c-.38,1.49-.75,2.23-1.12,2.23v3.63L833.11,353.67a8.24,8.24,0,0,1-1.12,1.95,49.56,49.56,0,0,1-.28,5.57l-2.23,10.32c-.55,3.16-2.6,4.74-6.13,4.74a13.45,13.45,0,0,1-2.51-.28,76.81,76.81,0,0,1-8.92.55,57.06,57.06,0,0,1-11.7-1.11q-.29,1.11-5,.56v-.56l-1.12.56-5-1.12q-2.52-.56-4.74-21.74l-19-120.7c-.74-1.85-1-3-.83-3.34l-.56-.28-1.67,2.51a8,8,0,0,1,.28,1.67H762l.28,1.12a5.91,5.91,0,0,0-.84,2.23q1.11,0-.56,128.78c.37,0,.47.18.28.55l-1.39,7.53c-.38,2.23-4.46,3.16-12.27,2.79H731.09c.18-.19.09-.37-.28-.56q-.28,1.11-10.87.28c0,.37-.19.46-.56.28l-5.3-.84a8.07,8.07,0,0,1-4.18-7V22.8A132,132,0,0,1,711,5.8Q711.86.5,725,.5a74.91,74.91,0,0,1,8.64.56q17-.56,25.08.84c.19-.37,2.32-.84,6.41-1.4l20.07,1.4q2.52.56,4.46,11.7A66.75,66.75,0,0,0,793,27.54l15.33,90.31q3.9,15.06,3.62,15.33a4.19,4.19,0,0,0,2.23,1.12,12,12,0,0,1,2.23-4.18l-.55-1.68c.74.19,1.11-.09,1.11-.83l.56-2.23a.5.5,0,0,0-.56-.56l.84-1.11-.84-1.68a1.31,1.31,0,0,0,1.39-1.11c-.74,0-1-.37-.83-1.12.74.19,1.11-.09,1.11-.83l.28-1.68-.56-2v-1.11l1.4-1.4.28-.55a.5.5,0,0,0-.56-.56l.84-.84-.84-1.95L838.4,10c.74-.37,1.77-2.41,3.07-6.13,1.85-1.68,4.55-2.51,8.08-2.51a31.62,31.62,0,0,1,5.58.56q.27-.55,7.52-.56a.5.5,0,0,1,.56-.56h.56q3.06.84,24,.84l1.67.28q2-1.39,9.48,0l.56.27q1.11-.82,11.15-.27A.77.77,0,0,1,911.15,1.62Z"/><circle class="cls-3" cx="500.91" cy="188.79" r="186.76"/><circle class="cls-3" cx="500.91" cy="188.79" r="163.98"/><ellipse class="cls-3" cx="500.91" cy="192.46" rx="141.21" ry="144.88"/><circle class="cls-3" cx="500.91" cy="188.79" r="118.44"/><circle class="cls-3" cx="500.91" cy="188.79" r="95.67"/><circle class="cls-4" cx="500.91" cy="188.79" r="72.89"/><path class="cls-5" d="M500.91,200.39a11.6,11.6,0,1,1,11.6-11.6A11.61,11.61,0,0,1,500.91,200.39Z"/><path class="cls-5" d="M500.91,177.69a11.1,11.1,0,1,1-11.1,11.1,11.1,11.1,0,0,1,11.1-11.1m0-1a12.1,12.1,0,1,0,12.1,12.1,12.11,12.11,0,0,0-12.1-12.1Z"/><circle class="cls-6" cx="500.91" cy="188.79" r="5.74"/><path class="cls-5" d="M500.91,183.55a5.24,5.24,0,1,1-5.24,5.24,5.25,5.25,0,0,1,5.24-5.24m0-1a6.24,6.24,0,1,0,6.24,6.24,6.25,6.25,0,0,0-6.24-6.24Z"/><path class="cls-6" d="M1005.72,372.57V203.27l1-14.18q1-8,3.42-10.16a51,51,0,0,1,5.85-15q40-93.34,38.58-95.48l-.49-.81q-1.71-1.86-12.94-1.6-.24-.54-5.37,0a123.94,123.94,0,0,1-14.89-.54,9.56,9.56,0,0,1-5.86-.26q-1,.8-6.84-2.14l-.73-.81V18.45l2.44-1.34a23.72,23.72,0,0,1,9.77-1.87h88.13a16.75,16.75,0,0,1,8.06,2.41l1.71,1.87v30a44.42,44.42,0,0,1-1.47,10.69l-5.86,13.11L1068.71,173v2.68l.73.8c.81,1.25,3.91,1.87,9.28,1.87h28.81q10,0,10.25,3.75l-.24,194.17h-98.39A28.74,28.74,0,0,1,1005.72,372.57Z"/><path class="cls-6" d="M1185.41,16.85l1.71,1.33v341q.74,8.82-.25,13.64c.16.18-.16,1.16-1,2.94l-45.17-.27a18.16,18.16,0,0,1-8.79,0,1.58,1.58,0,0,1-1.22.54,8.68,8.68,0,0,1-3.42-1.07c-.33.18-.57.18-.73,0q-2-2.67-2.93-13.64V34q1-15.24,2.69-16.85.48.81,3.9-1.33.74.54,12.7-.81,2.43.81,30.27,0,.49.81,9.28.54Z"/><path class="cls-6" d="M1323.84,48.67l.73,1.88-.25,1.87,1,2.41,1.47,1.07c-.49.17-.58,1.33-.25,3.47.16.36.41.45.73.27a162.19,162.19,0,0,1,3.91,23.27q1,10.7,1,16.85c0,5.71-.66,8.82-2,9.36l-2.19,1.07q-19,0-19.78.27a67.24,67.24,0,0,0-10,.26c-.16-.89-1.22-1-3.17-.26-.33-.71-1.39-.81-3.18-.27l-3.41-2.41-1.23-2.67q.24-6.15-1.7-20.06.72,0,0-6.69l-1.22-3.48-2-5.88c-4.39-2.49-8.3-3.48-11.72-2.94l-2.44,1.07a.54.54,0,0,0-.24.8h-1.22q-7.57,7.23-8.79,12-1.23.8-5.62,17.11-1.46,8-2.44,34.77-1.23,2.15-.49,9.63-1.21.81.49,8.83-.24.8,1,16.85,2.92,7.76,2.44,10.16l3.17,8.29q10.26,12.84,18.56,8.83l2-.8,5.86-3.48q2.45-9.63,1.71-15.24l-1.71-4.82a16.34,16.34,0,0,0-9.77-5.62c-1,.36-2.93-.26-5.85-1.87l-1.23-2.94q-1.71-19.51.25-31.56l1.46-2.41,1.47-.53q10.49-.54,43.7-.27l6.84.27c8.94-.18,13.83.71,14.64,2.67a283.69,283.69,0,0,1,1.71,32.1l-.24,205.94a5.86,5.86,0,0,1,.49,2.41,14,14,0,0,1-2.44,6.95l-2.2,1.07q-18.81.27-25.39-.53a46.32,46.32,0,0,1-7.81-10.43,2.57,2.57,0,0,0-2,.26l-1.22.54a108.26,108.26,0,0,0-9.52,8l-8.3,4q-.73.26-2-.81l-1.47,1.34a56.91,56.91,0,0,1-16.36,2.94,26.8,26.8,0,0,1-5.61-.53q-9.29-.54-22.46-9.36-12-10.17-15.14-18.46l-1-1.87-1.22-1.07-1.71-4a2.37,2.37,0,0,0-1.22-1.61,3.34,3.34,0,0,0-.24-2.14l-.73-.8v-1.07c-.33-.71-.57-1-.74-.8l-1.46-5.08-2.69-6.15a4.47,4.47,0,0,0,.25-2.41q-3.18-8-2.44-10.17l-.74-1.6q-1.21-2.94-4.15-22.47-1-2.67-1.46-13.1c-.16-.36-.41-.45-.73-.27q-.5-1.33-.74-13.91-2.19-27.81-2.19-40.65,0-3.48.24-5.89.49-2.94-.24-13.1,1-1.6.73-12.3,1-8.84,1.71-27.29,1.21-.53,1-12l6.83-38.52a50.57,50.57,0,0,0,2.44-11q1-.54,3.91-13.38l5.37-13.37q.24-3.21,13.43-30.49c.49-.17,2.52-3.21,6.1-9.09q11-13.38,17.09-16.32c0-.35.08-.53.25-.53l2.19-1.07,1.71.27.49-.27,1-1.61q.48,1.08,1.71.54a36,36,0,0,1,16.11-3.48,63.43,63.43,0,0,1,18.8,3.21q10.49,2.94,15.38,7.49,7.56,6.69,10.25,12.57.74-.52,3.18,5.35l1.46,3.74Z"/><path class="cls-6" d="M1354.11,16l2.44.54,38.58-.54q6.82,2.14,6.83,5.62,2.93,14.72,4.15,16.85c-.65.18-1,.54-1,1.07q2.19,2.67,4.39,19,1.21,0,5.61,21.93,1.47,4,4.16,19.53a175.38,175.38,0,0,1,4.39,20.06c.32,0,.49.18.49.53l-1,1.34V123q2,0,4.64,9.09h1q-.25-4.27,1.22-6.42V72.48l-.49-29.16,1-1.6v-.54l-1-1.33V32.36l1-1.61V28.61c0-.35-.17-.53-.49-.53l.49-1.07-.25-5.08c0-3,1.47-4.82,4.4-5.35l7.08-.27,1.46-1.07q24.66.81,24.66.27c2.93.36,4.39.71,4.39,1.07l1-.54q3.66-.25,3.91,8.83l-.49,3.21c0,.36.16.53.49.53l-.49,3.75.49,289.39-1,1.61v5.35c0,.35.16.53.49.53l-.49,1.07v6.15c0,.36.16.54.49.54l-.49,1.07c0,.36.16.53.49.53l-.49,1.07.24,19.53q.24,11-1.22,11.23l.49.8c-.81,2.86-3,4.37-6.59,4.55q-26.86-.27-41.5,0c0-.71-.33-1.07-1-1.07h-1.47l-1.46,1.07q-4.39-2.41-4.39-5.35-2.44-10.69-2.45-14.18v-1.6q-1-2.14-4.63-17.92h.48a37.77,37.77,0,0,1-2-10.43v-1.61q-2.68-4-6.1-26.74v-1.61c-.66-1.24-1.71-4.9-3.18-11v-3.21a139.24,139.24,0,0,1-4.64-20.06q-.72,0-2.93-13.64-1,0-2-4.55l-1-.53a4.5,4.5,0,0,1-1,2.67q0,1.33-.25,14.18c-.65,0-1,.35-1,1.07V264l1,1.34v3.74l-1,1.61v1.07l1,1.6c-.65.18-1,.54-1,1.07l.49,34.77,1,1.61q-1.46,0-1.22,12v11.23a5.61,5.61,0,0,1-1,1.61v.53l1,1.61-.49,31.56q0,5.88-7.08,5.88h-3.9l-1.47,1.07-.49-1.07q-.48,0-.48.54l-2.45-.54-22.7.27-.49.27v-.54H1349v.54h-8.54v-5.35l-.25-342.62q.49-9.63,4.89-11.23h7.81C1353.7,16.58,1354.11,16.4,1354.11,16Z"/><path class="cls-6" d="M1630.72,375q-14.4.54-28.56,0h-16.85l-9,.53c-1.31-1.07-2.44-1.51-3.42-1.34l-.73-.53q-2.45-11.24-2.93-29.15,0-6.15-2.44-36.11-.49-17.65-2-23.81.5-8.82-3.41-11.5-.73-.52-12.21-1.07l-9.77.54c-1.3-.54-2.6.36-3.9,2.67q-.73,1.08-2.69,16.05a5.74,5.74,0,0,1-.24,4.28q.48,1.88-2.69,23.8.49.81-2.93,31.83l-1.46,14.18c.48.36.32,1.51-.49,3.47a1.24,1.24,0,0,1,.24,1.61l-2.68,4.28a47.83,47.83,0,0,1-12.7,1.34c-2.44,0-5-.09-7.81-.27a57,57,0,0,0-8.06.53l-11.47-1.07-1-.53a34.07,34.07,0,0,1-.24-4.28,58.79,58.79,0,0,1,1-9.9q2-20.86,2.93-22.46-.48-.54,1-16.59A101,101,0,0,0,1487.9,306q1-1.61,1.46-9.63l1.22-6.68q-.48-.81,18.07-164c.81-4.45,1-6.86.49-7.22q1-1.33,3.66-24.34L1516,65.79q.49-.8,2.69-23.8a167,167,0,0,0,2.44-20.6,4.71,4.71,0,0,0,.73-3.21l.74-.8q3.17-1.86,16.6-1.6l41-.54a54.47,54.47,0,0,1,13.68,1.34l1.22,1.07a12.78,12.78,0,0,1,2,7.22q-.49.54,2,13.64l2.69,31q1.71,5.88.73,6.95,1,10.17,1.47,10.7,1.7,19,1,20.06l3.66,31.56q17.34,175.73,19,186.69-.73,1.33,1,6.95-.72,3.75,1,12.57-.49.54,1.22,17.65a41.19,41.19,0,0,1,1,7.76A8,8,0,0,1,1630.72,375Zm-73.24-199q-.74-.54-1.22-17.39a44.77,44.77,0,0,1-.73-12.84q-1.23-.8-2-16.85c-.81-.53-.89-1.24-.24-2.14l-1.22-1.07-.25.54L1548,147.1q-.26,9.09-2,12.57c.33,5.88.08,10-.73,12.3q.74.54-.49,5.62l4.4,3.21c.32-.54,2.28-.8,5.86-.8Z"/><path class="cls-6" d="M1685.41,16.31l1,.54q1.21,20.32.48,40.38c.33.18.33,2,0,5.35l-.24,113.67c1,1.79,1.3,3,1,3.75l3.17,1.6q21.72-.25,24.9,1.34l1.71.8q1.71.81,1.71,13.11,0,5.09-.24,11.77,0,134-.74,135.87a17.19,17.19,0,0,1,.74,5.88c0,1.6-.09,3.39-.25,5.35.33.18.16,2.41-.49,6.69.33.17.33,2.85,0,8a1.18,1.18,0,0,1,.25.8l-.25.27q-2.92,4-3.66,3.74-1.95,1.08-15.87,1.07-10,0-25.88-.53a193.36,193.36,0,0,1-20.5,0c0,.18-.66.27-2,.27s-3.17-.09-5.61-.27q-5.13.27-8.55.27a16.4,16.4,0,0,1-5.37-.54l-2.68-1.34q-1.47-1.34-2.2-12.83V32.09q.48-2.94,1.46-13.1l.25-.81q2.92-2.94,9.27-2.94a30,30,0,0,1,5.38.54,127.7,127.7,0,0,1,14.89-.54h8.3Q1683.71,15.51,1685.41,16.31Z"/></g></g></svg>